<?xml version="1.0" encoding="utf-8"?>
<!-- Generator: Adobe Illustrator 26.0.1, SVG Export Plug-In . SVG Version: 6.00 Build 0)  -->
<svg version="1.1" id="Layer_1" xmlns="http://www.w3.org/2000/svg" xmlns:xlink="http://www.w3.org/1999/xlink" x="0px" y="0px"
	 viewBox="0 0 800 800" style="enable-background:new 0 0 800 800;" xml:space="preserve">
<style type="text/css">
	
		.st0{opacity:0.78;fill:none;stroke:#000000;stroke-width:33.3333;stroke-linecap:square;stroke-miterlimit:133.3333;enable-background:new    ;}
	.st1{fill:none;}
	.st2{opacity:0.78;stroke:#000000;stroke-width:6;stroke-miterlimit:10;enable-background:new    ;}
</style>
<path class="st0" d="M789.7-9"/>
<path class="st1" d="M121,223"/>
<path class="st2" d="M502.4,12.4c2.9,4.5,2.9,4.5,6,10.6c0.9,1.6,0.9,1.6,1.7,3.3c1.9,3.6,3.8,7.3,5.7,10.9c1.4,2.6,2.6,5,3.9,7.6
	c2.7,5.2,5.3,10.4,8.1,15.6c5.7,11.1,11.5,22,17.3,32.9c1,2.1,2.1,4,3.3,6.1c7.2,13.7,14.6,27.2,21.9,40.7
	c7.5,13.8,14.9,27.9,22.3,41.7c10.5,19.7,21.1,39.5,31.7,59.2c1.7-0.5,3.4-1.2,5.1-1.7c38.1-3.3,67.7,20.1,96,43.3
	c1,0.9,1.9,1.6,2.9,2.4c22.1,18.2,33.9,33.1,40.6,61.4c0.5,2.2,0.5,2.2,1,4.5c7.9,35.3,14.6,72,17.1,108c0.2,1.6,0.2,2.9,0.3,4.5
	c0.3,4.8,0.7,9.9,1,14.7c0.2,2.2,0.2,2.2,0.3,4.5c0.9,16.8-2.7,27.2-13.7,40c-14.1,15.4-28.6,30.3-44.9,43.3
	c-4.5,3.3-4.5,3.3-7.2,6.7c-7.2,7.6-12.3,9.9-23,10.4c-4.8,0-9.4-0.2-14.2-0.3c-2.6,0-5.1-0.2-7.7-0.2c-6.9-0.2-13.5-0.3-20.4-0.7
	c-4.3-0.2-8.6-0.3-12.9-0.3c-7.2-0.2-14.2-0.5-21.4-0.7c-2.7-0.2-5.5-0.2-8.2-0.3c-48.2-1.7-85.5-35.8-120-67
	c-2.9-2.6-5.8-5.2-8.9-8c-21.3-19-28.5-32.2-30.2-60.6c0-7.3,0.2-14.4,0.3-21.6c0-1.9,0.2-4,0.2-5.9c0.5-12.1,1.5-24.1,3.3-36
	c0.2-1.4,0.3-2.6,0.5-4c2.2-13.5,8.7-21.3,19.5-29.4c9.3-5.2,9.3-5.2,13.7-5.2c-0.5-1-1.2-2.1-1.7-3.1
	c-95.3-176.3-95.3-176.3-81.9-227c5-14.7,14.4-27.3,27.3-36c6.9-5.5,8.7-14,11.5-22.2c7.7-19.7,25.5-34.1,44.4-42.4
	C497.3,10.6,497.3,10.6,502.4,12.4z M482,48.2c-8.9,9-13.5,17.7-14.2,30.5c1.7,42.1,36.5,92.4,54.5,129.6c0.9,1.7,1.7,3.5,2.6,5.2
	c2.4,5,4.8,9.9,7.2,14.9c1,2.2,1,2.2,2.2,4.5c3.4,6.9,6.9,13.7,10.8,20.2c1.2-1.2,2.4-2.6,3.8-3.8c2.4-2.4,2.4-2.4,4.8-4.8
	c1.2-1.4,2.4-2.6,3.6-4c8.2-4.7,16.5-4,25.5-2.9c4.5,1.4,7.9,2.9,12,5.2c-2.9-10.2-7.7-19.2-12.7-28.6c-0.9-1.7-1.9-3.5-2.7-5.4
	c-6.9-13-13.7-25.8-20.7-38.8c-8.1-14.9-15.9-29.9-23.8-45c-14.6-27.9-29.3-55.5-44.6-83.1C487,41.8,484.3,45.9,482,48.2z
	 M445.9,98.9c-8.9,9.5-14.1,20.4-14.7,33.6c2.7,65.2,48.9,142.4,83.3,196.6c8.4-3.6,13.2-8.5,16.6-16.8c6.9-21.1,2.4-36-7.4-55.2
	c-3.4-6.6-7-13.2-10.5-19.7c-3.1-5.7-6-11.4-9.1-17.3c-1.2-2.2-2.4-4.7-3.6-6.9c-0.5-1.2-1.2-2.2-1.7-3.5c-1.7-3.5-3.6-6.9-5.3-10.2
	c-9.6-18.2-18.2-36.7-26.2-55.5c-0.5-1.2-1-2.4-1.5-3.8c-2.4-5.5-4.6-10.9-7-16.4c-3.6-8.3-7.2-16.6-11-24.7
	C447.1,98.9,446.4,98.9,445.9,98.9z M571,258.1c-8.1,14.9-17.3,32.9-15.4,50.2c1.7,4.8,4.1,9.5,6.5,14c5.8,11.8,10.5,23.4,14.1,36.2
	c0.5,0,1.2,0,1.7,0c2.1-11.8,2.2-23.7,2.6-35.6c0.3-12.3,0.7-24.7,1.5-37c0.2-1.7,0.2-3.5,0.3-5.4c0.7-5.5,2.2-10.2,4.1-15.4
	c-2.9-1.7-2.9-1.7-5.8-3.5c-1-0.7-2.2-1.2-3.3-1.9C574.4,257.9,574.4,257.9,571,258.1z M625.7,268.1c-1.2,0.7-2.4,1.2-3.6,1.9
	c-3.4,1.7-6.7,3.5-9.9,5.4c-1.4,0.7-2.7,1.4-4.1,2.2c-6.7,7.4-4.8,23.9-5.1,33.6c0,1.6-0.2,3.3-0.2,4.8c-0.2,5.4-0.5,10.6-0.7,15.9
	c-0.2,3.8-0.3,7.4-0.5,11.2c-0.3,7.8-0.7,15.6-0.9,23.4c-0.3,9.9-0.9,19.9-1.2,29.8c-0.3,7.6-0.7,15.4-0.9,23
	c-0.2,3.6-0.3,7.3-0.5,10.9c-0.9,19.2-1.5,38.4-1.2,57.8c12-0.5,22.8-2.8,32.6-10.4c6.9-9.7,8.7-18.9,10.5-30.5
	c0.3-1.9,0.5-3.6,0.9-5.5c2.6-17.8,4.1-35.6,5.5-53.6c0.2-2.1,0.2-2.1,0.3-4.3c1.4-16.6,2.1-33.1,1.9-49.8
	c7.4,0.5,14.7,1.2,22.3,1.7c0,10.2,0,20.6,0,31.1c3.4-1.2,6.9-2.2,10.3-3.5c-0.9,1.6-1.7,3.1-2.6,4.7c-8.7,17.1-11.8,32.4-13.2,51.4
	c-1.4,15.7-2.9,31.1-6.5,46.6c-0.3,1.2-0.5,2.4-0.9,3.6c-2.7,11.6-6.9,20.6-16.5,27.9c-3.9,2.4-7.7,4.2-12,6.1
	c-1.2,0.5-2.4,1-3.6,1.6c-15.1,5.5-37.4,8.1-53,3.6c-0.5-3.5-1.2-6.9-1.7-10.4c-3.3,1-3.3,1-6.5,2.1c-9.9,3.3-19.7,6.6-29.5,10
	c0,1.7,0,3.5,0,5.2c2.7,2.8,2.7,2.8,6.5,5.4c1.4,1,2.7,2.1,4.1,3.1c1.5,1,2.9,2.1,4.5,3.3c1.5,1,2.9,2.2,4.5,3.3
	c4.3,3.1,8.6,6.2,12.9,9.2c1,0.7,2.1,1.6,3.1,2.2c19.2,13.7,38.7,14.2,61.5,15.2c1.4,0,2.7,0.2,4.3,0.2c5.7,0.3,11.3,0.5,17,0.7
	c7.7,0.3,15.4,0.9,23.1,1.4c15.8,1,15.8,1,30.3-4.3c4.8-4.3,8.9-8.8,13-13.8c2.1-1.9,4.3-3.8,6.5-5.5c7.2-6.2,13.9-13,20.7-19.7
	c1.2-1,2.2-2.2,3.4-3.5c11.3-11.2,11.3-11.2,14.6-26.5c-0.3-12.5-1.9-24.9-3.4-37.2c-0.2-1.2-0.3-2.4-0.5-3.8
	c-3.9-32.5-8.9-64.9-16.6-96.7c-0.5-2.1-0.5-2.1-1-4.2c-8.9-34.6-47.8-57.3-76.8-74.8C650.5,261.4,642.3,259.5,625.7,268.1z
	 M535.3,344.3c-11.1,8.8-23.5,15.1-36.3,20.9c-9.3,4.3-9.3,4.3-14.7,12.6c-0.2,2.1-0.5,4.3-0.7,6.4c-0.2,1.2-0.3,2.2-0.5,3.5
	c-1,9-1.5,17.8-1.5,26.8c0,1.4,0,2.6,0,4c0,2.8,0,5.5,0,8.3c0,4.3,0,8.5-0.2,12.8c0,2.8,0,5.5,0,8.1c0,1.2,0,2.6,0,3.8
	c0,14,6.5,23.4,16.1,32.7c5,1.9,9.8,2.1,18.9,15.6c3.9-6.1,3.9-8.5,3.9-15.6c0-2.1,0.2-4.2,0.2-6.2s0-4.3,0.2-6.4
	c0-4.2,0.2-8.5,0.3-12.6c0-1.9,0-3.8,0.2-5.7c0.9-8.8,3.6-15.9,8.4-23.4c1.4-2.1,1.4-2.1,2.6-4.2c0.9-1.4,1.9-2.8,2.7-4.3
	c16.3-24.7,16.3-24.7,20.9-53.3c-1.4-5.5-3.3-10.9-5.1-16.3c-0.5-1.4-1-2.9-1.5-4.3c-1.2-3.5-2.4-6.9-3.6-10.6
	C541.7,337.7,537.9,342.4,535.3,344.3z M574.4,394.8c-0.9,1.9-1.5,3.6-2.4,5.5c-1.2,2.6-2.2,5-3.4,7.6c-0.5,1.4-1.2,2.6-1.9,4
	c-3.8,8-7.9,14.9-13.2,22c-12,15.9-11.8,29.8-10.1,49.1c10.3-2.4,14.1-4.7,19.9-13.3c0.9-1.4,1.5-2.6,2.4-4c0.9-1.2,1.7-2.6,2.4-4
	c11.3-19.7,8.1-44.8,7.9-67C575.6,394.8,574.9,394.8,574.4,394.8z"/>
<path class="st2" d="M271.5,446c1,0.7,2.1,1.6,3.3,2.2c18,12.8,34.3,27.2,49.9,42.7c1.4,1.4,2.7,2.8,4.3,4.2
	c14.6,15.2,21.4,35.1,28.3,54.7c1.9,0.2,3.8,0.5,5.8,0.7c110.2,13.2,110.2,13.2,126.5,31.3c16.1,22.2,21.4,46.4,20.2,73.5
	c-1.7,0.5-3.4,1.2-5.1,1.7c1.4,1.7,2.7,3.3,4.1,5c7.9,11.1,9.4,24.7,7.9,38.2c-0.9,2.8-1.7,5.5-2.6,8.3c-0.5,1.4-1,2.8-1.4,4.2
	c-0.3,1-0.7,2.1-1,3.1c-1.2,0-2.2,0-3.4,0c-27.8-0.2-55.7-0.2-83.5-0.2c-13.5,0-26.9,0-40.5,0c-11.7,0-23.5,0-35.1,0
	c-6.2,0-12.3,0-18.7,0c-7,0-13.9,0-20.9,0c-2.1,0-4.1,0-6.2-0.2c-13.7,0.2-20.4,3.8-30,13.8c-1.2,1.2-2.4,2.6-3.6,3.8
	c-2.1,1.7-3.9,3.5-6,5c-0.9,0.7-1.7,1.4-2.7,2.1c-0.9,0.7-1.9,1.4-2.7,2.1c-1,0.9-2.1,1.6-3.1,2.4c-3.1,2.4-6.3,4.8-9.4,7.4
	c-1,0.9-2.1,1.6-3.1,2.4c-42.7,33.4-42.7,33.4-64.8,31.7c-12.2-2.8-22.6-8.8-33.3-15.2c-1-0.7-2.2-1.2-3.4-1.9
	c-42-24.7-80.4-56.8-114.9-91.2c-1-1-1.9-1.9-2.9-2.9c-8.9-9-11.1-14.5-11.5-27c0-37.2,6.3-73.5,13.5-109.9c0.2-1.2,0.5-2.6,0.7-3.8
	c8.7-45,8.7-45,20.7-54c8.1-4.8,16.1-9,24.7-12.8c1.2-0.5,2.4-1,3.6-1.6c52.1-22.5,97.9-33.9,40.6-14.9c1.4-0.5,2.6-0.9,3.9-1.4
	c25.7-8.7,51.6-16.3,78-23c1.4-0.3,2.9-0.7,4.3-1.2C228.5,419.6,250.3,431.1,271.5,446z M189.8,453.5c-1.2,0.3-2.2,0.5-3.4,0.9
	c-40.1,10.6-81.6,22.7-118.6,41.9c-2.4,0.9-2.4,0.9-4.8,1.7c-6.5,5.9-7.2,14-8.9,22.3c-0.3,1.9-0.9,3.8-1.4,5.9
	c-6.5,30.3-12,60.7-15.6,91.5c-0.2,1.9-0.5,3.6-0.7,5.5c-2.2,18.3-2.2,18.3,3.6,35.3c1.9,1.9,1.9,1.9,3.9,4c1.4,1.4,2.7,2.9,4.3,4.3
	c5.8,5.5,11.7,10.9,17.8,16.1c2.6,2.1,2.6,2.1,5,4.3c26.9,23.4,55.2,45,85.9,63.2c1,0.5,1.9,1.2,2.9,1.7c2.9,1.7,5.8,3.5,8.9,5.2
	c1.7,1,3.4,2.1,5.3,3.1c6.7,2.6,10.3,2.1,17.3,0.3c4.5-2.1,8.6-4.7,12.7-7.3c1.2-0.7,2.4-1.6,3.6-2.2c15.6-10.2,30.5-22.2,43.7-35.3
	c-22.6,0-45.3,0-68.6,0c0-7.4,0-14.9,0-22.5c102.3,0,204.8,0,310.3,0c0.2-10.9,0.2-10.9-5.1-19c-4.1-3.3-4.1-3.3-8.9-6.1
	c-1.5-0.9-3.1-1.9-4.6-2.9c-1.7-1-3.4-2.1-5.3-3.1c-0.9-0.7-1.9-1.4-2.9-2.1c-9.9-7.1-18.2-7.8-30-7.8c-1.9,0-3.8,0-5.7-0.2
	c-6.2-0.2-12.5-0.2-18.7-0.2c-4.5,0-8.9-0.2-13.2-0.2c-9.3-0.2-18.7-0.2-27.9-0.3c-11.7-0.2-23.3-0.2-35-0.3
	c-60.9,5.7-119.1,5-175-0.9c0-7.4,0-14.9,0-22.5c3.4,0,6.7,0.2,10.1,0.2c31.7,0.3,63.6,0.9,95.3,1.2c16.3,0.2,32.7,0.3,49,0.7
	c14.2,0.2,28.5,0.3,42.9,0.5c7.5,0.2,15.1,0.2,22.6,0.3c34.8,0.5,69.4,0.7,104.2,0.7c-0.5-2.4-1-4.8-1.5-7.3
	c-0.3-1.4-0.5-2.8-0.9-4.2c-3.3-13.3-10.3-22.3-21.6-30.1c-5.8-2.4-11.5-3.5-17.7-4.5c-2.7-0.5-2.7-0.5-5.5-1
	c-70.5-12.3-142.5-16.6-213.6-22.3c-1.9-0.2-3.6-0.3-5.5-0.5c-18.3-1.4,27.4-1.9-28.5-1c0-7.4,0-14.9,0-22.5c9.1,0,18.2,0,27.4,0
	c-1.7-5.2-1.7-5.2-3.4-10.4c-0.7-3.5-1.2-6.9-1.7-10.4c1.2,0.9,1.2,0.9,2.4,1.9c3.6,2.8,7.4,5.5,11,8.3c1.9,1.4,1.9,1.4,3.8,2.9
	c1.2,0.9,2.4,1.9,3.8,2.8c1.2,0.9,2.2,1.7,3.4,2.6c5.5,4,8.9,6.2,15.6,6.7c1.5,0.2,2.9,0.3,4.5,0.3c2.4,0.2,2.4,0.2,4.8,0.3
	c2.4,0.2,2.4,0.2,5,0.5c3.4,0.3,7,0.7,10.5,0.9c5.3,0.5,10.6,0.9,15.9,1.4c3.4,0.3,6.7,0.5,10.1,0.9c2.4,0.2,2.4,0.2,4.8,0.3
	c7.7,0.7,15.1,1.2,22.8,1c-9.8-33.6-34.5-54.3-61.7-74.4c-1.4-1-1.4-1-2.9-2.1C237.6,451.4,223,444.6,189.8,453.5z"/>
</svg>
